<svg width="28" height="28" viewBox="0 0 45 45" fill="none" xmlns="http://www.w3.org/2000/svg">
<path d="M22.5 0C25.4837 0 28.3452 1.18526 30.455 3.29505C32.5647 5.40483 33.75 8.26631 33.75 11.25C33.75 14.2337 32.5647 17.0952 30.455 19.205C28.3452 21.3147 25.4837 22.5 22.5 22.5C19.5163 22.5 16.6548 21.3147 14.545 19.205C12.4353 17.0952 11.25 14.2337 11.25 11.25C11.25 8.26631 12.4353 5.40483 14.545 3.29505C16.6548 1.18526 19.5163 0 22.5 0ZM22.5 28.125C34.9313 28.125 45 33.1594 45 39.375V45H0V39.375C0 33.1594 10.0687 28.125 22.5 28.125Z" fill="white"/>
</svg>
