<svg width="33" height="33" viewBox="0 0 40 52" fill="none" xmlns="http://www.w3.org/2000/svg">
<path d="M20 39.619C21.3261 39.619 22.5979 39.0973 23.5355 38.1685C24.4732 37.2398 25 35.9801 25 34.6667C25 31.9181 22.75 29.7143 20 29.7143C18.6739 29.7143 17.4021 30.2361 16.4645 31.1648C15.5268 32.0936 15 33.3532 15 34.6667C15 35.9801 15.5268 37.2398 16.4645 38.1685C17.4021 39.0973 18.6739 39.619 20 39.619ZM35 17.3333C36.3261 17.3333 37.5979 17.8551 38.5355 18.7839C39.4732 19.7126 40 20.9723 40 22.2857V47.0476C40 48.3611 39.4732 49.6207 38.5355 50.5495C37.5979 51.4782 36.3261 52 35 52H5C3.67392 52 2.40215 51.4782 1.46447 50.5495C0.526784 49.6207 0 48.3611 0 47.0476V22.2857C0 19.5371 2.25 17.3333 5 17.3333H7.5V12.381C7.5 9.09732 8.81696 5.94818 11.1612 3.6263C13.5054 1.30442 16.6848 0 20 0C21.6415 0 23.267 0.320243 24.7835 0.942444C26.3001 1.56465 27.6781 2.47662 28.8388 3.6263C29.9996 4.77598 30.9203 6.14084 31.5485 7.64297C32.1767 9.14509 32.5 10.7551 32.5 12.381V17.3333H35ZM20 4.95238C18.0109 4.95238 16.1032 5.73503 14.6967 7.12816C13.2902 8.52129 12.5 10.4108 12.5 12.381V17.3333H27.5V12.381C27.5 10.4108 26.7098 8.52129 25.3033 7.12816C23.8968 5.73503 21.9891 4.95238 20 4.95238Z" fill="white"/>
</svg>
